<svg width="140" height="140" viewBox="0 0 140 140" fill="none" xmlns="http://www.w3.org/2000/svg">
<g filter="url(#filter0_df_265_743)">
<circle cx="70" cy="66" r="38" fill="white"/>
</g>
<mask id="path-2-inside-1_265_743" fill="white">
<path d="M88.8459 93.9976C90.1567 95.945 89.6495 98.61 87.568 99.6952C82.5909 102.29 77.0839 103.759 71.4398 103.973C64.3751 104.241 57.3757 102.532 51.2287 99.04C45.0817 95.5476 40.0309 90.4097 36.6441 84.2039C33.2573 77.9981 31.6689 70.9706 32.0574 63.9115C32.446 56.8524 34.7961 50.0416 38.8436 44.2451C42.891 38.4485 48.4753 33.896 54.9685 31.0994C61.4616 28.3028 68.6062 27.3731 75.5989 28.4147C81.1853 29.2469 86.4978 31.311 91.1601 34.4365C93.1099 35.7437 93.3216 38.4483 91.8049 40.24C90.2883 42.0317 87.6192 42.2245 85.6282 40.9809C82.2057 38.843 78.3674 37.4218 74.3463 36.8228C68.918 36.0142 63.3717 36.7359 58.3311 38.9069C53.2905 41.0779 48.9555 44.612 45.8135 49.1118C42.6715 53.6116 40.8471 58.8988 40.5455 64.3787C40.2438 69.8586 41.4769 75.3141 44.106 80.1316C46.7352 84.9491 50.6561 88.9376 55.428 91.6487C60.1999 94.3598 65.6334 95.6859 71.1177 95.4779C75.1803 95.3239 79.1513 94.3326 82.7878 92.5833C84.9032 91.5657 87.5351 92.0502 88.8459 93.9976Z"/>
</mask>
<path d="M88.8459 93.9976C90.1567 95.945 89.6495 98.61 87.568 99.6952C82.5909 102.29 77.0839 103.759 71.4398 103.973C64.3751 104.241 57.3757 102.532 51.2287 99.04C45.0817 95.5476 40.0309 90.4097 36.6441 84.2039C33.2573 77.9981 31.6689 70.9706 32.0574 63.9115C32.446 56.8524 34.7961 50.0416 38.8436 44.2451C42.891 38.4485 48.4753 33.896 54.9685 31.0994C61.4616 28.3028 68.6062 27.3731 75.5989 28.4147C81.1853 29.2469 86.4978 31.311 91.1601 34.4365C93.1099 35.7437 93.3216 38.4483 91.8049 40.24C90.2883 42.0317 87.6192 42.2245 85.6282 40.9809C82.2057 38.843 78.3674 37.4218 74.3463 36.8228C68.918 36.0142 63.3717 36.7359 58.3311 38.9069C53.2905 41.0779 48.9555 44.612 45.8135 49.1118C42.6715 53.6116 40.8471 58.8988 40.5455 64.3787C40.2438 69.8586 41.4769 75.3141 44.106 80.1316C46.7352 84.9491 50.6561 88.9376 55.428 91.6487C60.1999 94.3598 65.6334 95.6859 71.1177 95.4779C75.1803 95.3239 79.1513 94.3326 82.7878 92.5833C84.9032 91.5657 87.5351 92.0502 88.8459 93.9976Z" stroke="#FF9900" stroke-width="14" mask="url(#path-2-inside-1_265_743)"/>
<path d="M80.6415 67.4811L67.1201 75.3266C65.9726 75.9917 64.5 75.1864 64.5 73.8455V58.1545C64.5 56.8157 65.9705 56.0082 67.1201 56.6755L80.6415 64.521C80.9025 64.67 81.1195 64.8854 81.2704 65.1453C81.4213 65.4053 81.5008 65.7005 81.5008 66.0011C81.5008 66.3016 81.4213 66.5969 81.2704 66.8568C81.1195 67.1167 80.9025 67.3321 80.6415 67.4811Z" fill="black"/>
<defs>
<filter id="filter0_df_265_743" x="0" y="0" width="140" height="140" filterUnits="userSpaceOnUse" color-interpolation-filters="sRGB">
<feFlood flood-opacity="0" result="BackgroundImageFix"/>
<feColorMatrix in="SourceAlpha" type="matrix" values="0 0 0 0 0 0 0 0 0 0 0 0 0 0 0 0 0 0 127 0" result="hardAlpha"/>
<feMorphology radius="2" operator="dilate" in="SourceAlpha" result="effect1_dropShadow_265_743"/>
<feOffset dy="4"/>
<feGaussianBlur stdDeviation="15"/>
<feComposite in2="hardAlpha" operator="out"/>
<feColorMatrix type="matrix" values="0 0 0 0 0.279167 0 0 0 0 0.279167 0 0 0 0 0.279167 0 0 0 0.25 0"/>
<feBlend mode="normal" in2="BackgroundImageFix" result="effect1_dropShadow_265_743"/>
<feBlend mode="normal" in="SourceGraphic" in2="effect1_dropShadow_265_743" result="shape"/>
<feGaussianBlur stdDeviation="0.5" result="effect2_foregroundBlur_265_743"/>
</filter>
</defs>
</svg>
