<svg width="107" height="73" viewBox="0 0 107 73" fill="none" xmlns="http://www.w3.org/2000/svg">
<path d="M36.922 7.576C37.0753 7.45333 37.2287 7.42266 37.382 7.484C37.566 7.54533 37.6733 7.65266 37.704 7.806C37.7653 7.95933 37.75 8.128 37.658 8.312C32.0153 14.9053 26.664 21.4527 21.604 27.954C23.7507 37.4607 25.422 45.3113 26.618 51.506C26.6793 51.8127 26.6027 52.058 26.388 52.242C26.204 52.426 25.974 52.4873 25.698 52.426C25.4527 52.3647 25.2993 52.196 25.238 51.92C24.1033 47.4427 22.4627 39.9907 20.316 29.564C13.9067 37.9053 8.04933 46.1087 2.744 54.174C2.52933 54.4807 2.25333 54.6187 1.916 54.588C1.57867 54.5573 1.33333 54.404 1.18 54.128C1.02667 53.8827 1.02667 53.5913 1.18 53.254C6.976 43.9007 13.1707 35.0993 19.764 26.85C18.3227 19.858 17.0347 14.1693 15.9 9.784C15.9613 10.0293 15.8693 10.2133 15.624 10.336C15.3787 10.428 15.1947 10.3513 15.072 10.106C14.796 9.61533 14.8267 9.20133 15.164 8.864C15.532 8.52666 15.9767 8.46533 16.498 8.68C16.9273 8.864 17.2493 9.232 17.464 9.784C17.7093 10.3053 17.8933 11.0413 18.016 11.992C18.1693 12.9427 18.246 13.4333 18.246 13.464C18.5833 14.7827 19.1507 17.2053 19.948 20.732C20.408 22.664 20.7607 24.1973 21.006 25.332C26.158 18.984 31.4633 13.0653 36.922 7.576Z" fill="url(#paint0_linear_242_585)"/>
<path d="M36.922 7.576L35.6726 6.01426L35.5839 6.08521L35.5038 6.16575L36.922 7.576ZM37.382 7.484L36.6392 9.34095L36.6938 9.36278L36.7496 9.38137L37.382 7.484ZM37.704 7.806L35.7428 8.19822L35.7789 8.37829L35.847 8.54878L37.704 7.806ZM37.658 8.312L39.1775 9.61242L39.3371 9.42595L39.4469 9.20643L37.658 8.312ZM21.604 27.954L20.0257 26.7256L19.4448 27.472L19.6531 28.3945L21.604 27.954ZM26.618 51.506L24.6542 51.8851L24.6568 51.8982L26.618 51.506ZM26.388 52.242L25.0864 50.7235L25.0281 50.7735L24.9738 50.8278L26.388 52.242ZM25.698 52.426L25.2129 54.3663L25.2385 54.3727L25.2641 54.3784L25.698 52.426ZM25.238 51.92L27.1904 51.4861L27.184 51.4573L27.1767 51.4287L25.238 51.92ZM20.316 29.564L22.2749 29.1607L21.3934 24.8793L18.7301 28.3454L20.316 29.564ZM2.744 54.174L4.38246 55.3209L4.39903 55.2973L4.41491 55.2731L2.744 54.174ZM1.916 54.588L2.09707 52.5962L2.09707 52.5962L1.916 54.588ZM1.18 54.128L2.92832 53.1567L2.9033 53.1117L2.876 53.068L1.18 54.128ZM1.18 53.254L-0.520055 52.2005L-0.587639 52.3096L-0.640732 52.4264L1.18 53.254ZM19.764 26.85L21.3263 28.0987L21.9123 27.3655L21.7228 26.4462L19.764 26.85ZM15.9 9.784L17.8362 9.28301L13.9597 10.2691L15.9 9.784ZM15.624 10.336L16.3263 12.2087L16.4245 12.1718L16.5184 12.1249L15.624 10.336ZM15.072 10.106L16.8609 9.21157L16.8391 9.16796L16.8152 9.12547L15.072 10.106ZM15.164 8.864L13.8126 7.38969L13.7805 7.41905L13.7498 7.44979L15.164 8.864ZM16.498 8.68L17.2858 6.84171L17.2727 6.83608L17.2595 6.83064L16.498 8.68ZM17.464 9.784L15.6 10.5089L15.625 10.5732L15.6544 10.6356L17.464 9.784ZM18.016 11.992L16.0324 12.2479L16.0365 12.2793L16.0415 12.3105L18.016 11.992ZM18.246 13.464H16.246V13.7158L16.3084 13.9597L18.246 13.464ZM19.948 20.732L17.9972 21.173L17.9997 21.1842L18.0024 21.1952L19.948 20.732ZM21.006 25.332L19.0512 25.7547L19.9321 29.829L22.5589 26.5923L21.006 25.332ZM38.1714 9.13773C38.0608 9.22619 37.8511 9.36078 37.5442 9.42216C37.2186 9.48728 36.9015 9.44587 36.6392 9.34095L38.1248 5.62705C37.1649 5.24308 36.262 5.54271 35.6726 6.01426L38.1714 9.13773ZM36.7496 9.38137C36.6263 9.3403 36.4045 9.24295 36.1863 9.02471C35.952 8.79038 35.8025 8.49636 35.7428 8.19822L39.6652 7.41377C39.4582 6.37886 38.6879 5.81109 38.0145 5.58663L36.7496 9.38137ZM35.847 8.54878C35.7575 8.32479 35.7266 8.08806 35.7467 7.86643C35.7659 7.65538 35.8269 7.50209 35.8692 7.41756L39.4469 9.20643C39.7267 8.64677 39.8848 7.87286 39.561 7.06321L35.847 8.54878ZM36.1385 7.01158C30.4767 13.6272 25.1057 20.1986 20.0257 26.7256L23.1823 29.1824C28.2223 22.7068 33.5539 16.1834 39.1775 9.61242L36.1385 7.01158ZM19.6531 28.3945C21.7974 37.8905 23.4637 45.7188 24.6543 51.8851L28.5817 51.1269C27.3803 44.9038 25.704 37.0309 23.5549 27.5135L19.6531 28.3945ZM24.6568 51.8982C24.6359 51.7935 24.6164 51.5832 24.6975 51.3235C24.7822 51.0526 24.9383 50.8505 25.0864 50.7235L27.6896 53.7605C28.5209 53.0479 28.764 52.0381 28.5792 51.1138L24.6568 51.8982ZM24.9738 50.8278C25.1067 50.6948 25.306 50.5618 25.5622 50.4935C25.8106 50.4273 26.015 50.4477 26.1319 50.4736L25.2641 54.3784C26.1387 54.5727 27.0867 54.3717 27.8022 53.6562L24.9738 50.8278ZM26.1831 50.4857C26.3999 50.5399 26.6613 50.6688 26.8789 50.9082C27.0864 51.1364 27.1635 51.3652 27.1904 51.4861L23.2856 52.3539C23.3738 52.7508 23.5583 53.202 23.9191 53.5988C24.2901 54.0069 24.7507 54.2507 25.2129 54.3663L26.1831 50.4857ZM27.1767 51.4287C26.0541 46.999 24.4213 39.5858 22.2749 29.1607L18.3571 29.9673C20.5041 40.3956 22.1525 47.8863 23.2993 52.4113L27.1767 51.4287ZM18.7301 28.3454C12.2936 36.7221 6.40755 44.9653 1.07309 53.0749L4.41491 55.2731C9.69112 47.2521 15.5197 39.0885 21.9019 30.7826L18.7301 28.3454ZM1.10554 53.0271C1.14863 52.9655 1.2649 52.827 1.48157 52.7186C1.70832 52.6053 1.93277 52.5813 2.09707 52.5962L1.73493 56.5798C2.87299 56.6832 3.80902 56.1401 4.38246 55.3209L1.10554 53.0271ZM2.09707 52.5962C2.18731 52.6044 2.35404 52.6384 2.539 52.754C2.72915 52.8729 2.85598 53.0265 2.92832 53.1567L-0.568315 55.0993C-0.0668447 56.0019 0.79531 56.4944 1.73493 56.5798L2.09707 52.5962ZM2.876 53.068C2.99946 53.2655 3.065 53.4991 3.065 53.7255C3.065 53.9318 3.0112 54.0586 3.00073 54.0816L-0.640732 52.4264C-0.983835 53.1812 -1.12392 54.2153 -0.515996 55.188L2.876 53.068ZM2.88005 54.3075C8.63582 45.0191 14.7848 36.2832 21.3263 28.0987L18.2017 25.6013C11.5566 33.9155 5.31618 42.7823 -0.520055 52.2005L2.88005 54.3075ZM21.7228 26.4462C20.2781 19.4378 18.9825 13.7134 17.8362 9.28301L13.9638 10.285C15.0868 14.6253 16.3672 20.2782 17.8052 27.2538L21.7228 26.4462ZM13.9597 10.2691C13.9022 10.0388 13.8748 9.6383 14.0881 9.21157C14.2912 8.80546 14.5933 8.61527 14.7296 8.54714L16.5184 12.1249C16.9 11.9341 17.3708 11.5905 17.6659 11.0004C17.9712 10.3897 17.9592 9.7745 17.8403 9.29892L13.9597 10.2691ZM14.9217 8.46334C15.1212 8.38855 15.5615 8.28894 16.0712 8.50134C16.5645 8.70686 16.7882 9.06633 16.8609 9.21157L13.2831 11.0004C13.4784 11.391 13.8555 11.9115 14.5328 12.1937C15.2265 12.4827 15.8815 12.3754 16.3263 12.2087L14.9217 8.46334ZM16.8152 9.12547C16.8032 9.10428 16.905 9.27256 16.8825 9.57524C16.8572 9.9169 16.6949 10.1616 16.5782 10.2782L13.7498 7.44979C13.2958 7.90376 12.9494 8.52409 12.8935 9.27975C12.8404 9.99643 13.0648 10.617 13.3288 11.0865L16.8152 9.12547ZM16.5154 10.3383C16.4349 10.4121 16.2716 10.5152 16.0468 10.5462C15.8395 10.5748 15.7203 10.5227 15.7365 10.5294L17.2595 6.83064C16.7544 6.62264 16.1522 6.49383 15.5002 6.58376C14.8307 6.6761 14.2611 6.97853 13.8126 7.38969L16.5154 10.3383ZM15.7102 10.5183C15.6775 10.5043 15.6451 10.4858 15.6157 10.4643C15.5866 10.4429 15.5671 10.4233 15.5563 10.411C15.5357 10.3874 15.5597 10.4052 15.6 10.5089L19.328 9.05911C18.9737 8.14797 18.3328 7.2904 17.2858 6.84171L15.7102 10.5183ZM15.6544 10.6356C15.7717 10.885 15.9212 11.386 16.0324 12.2479L19.9996 11.7361C19.8654 10.6967 19.6469 9.72562 19.2736 8.9324L15.6544 10.6356ZM16.0415 12.3105C16.118 12.785 16.1749 13.1414 16.2125 13.3818C16.2314 13.5027 16.2446 13.5896 16.2529 13.6457C16.2572 13.6748 16.2591 13.6886 16.2595 13.6918C16.2598 13.6943 16.2585 13.6849 16.2568 13.669C16.256 13.6612 16.2541 13.6437 16.2522 13.6205C16.2513 13.6088 16.246 13.5456 16.246 13.464H20.246C20.246 13.3805 20.2406 13.3145 20.2393 13.299C20.2371 13.2721 20.2348 13.25 20.2334 13.2367C20.2305 13.2098 20.2274 13.1858 20.2253 13.17C20.221 13.1369 20.2157 13.0999 20.2103 13.0638C20.1994 12.9896 20.184 12.8886 20.1645 12.7642C20.1254 12.5139 20.0673 12.1497 19.9905 11.6735L16.0415 12.3105ZM16.3084 13.9597C16.6378 15.2475 17.1994 17.6443 17.9972 21.173L21.8988 20.291C21.1019 16.7663 20.5288 14.3179 20.1836 12.9683L16.3084 13.9597ZM18.0024 21.1952C18.4611 23.1218 18.8101 24.6397 19.0512 25.7547L22.9608 24.9093C22.7112 23.7549 22.3549 22.2062 21.8936 20.2688L18.0024 21.1952ZM22.5589 26.5923C27.6709 20.2936 32.9315 14.4253 38.3402 8.98624L35.5038 6.16575C29.9952 11.7053 24.6451 17.6743 19.4531 24.0717L22.5589 26.5923Z" fill="url(#paint1_linear_242_585)"/>
<path d="M43.3359 23.3633C43.3529 23.4479 43.3867 23.5241 43.4375 23.5918C43.4883 23.6426 43.5391 23.6849 43.5898 23.7188C43.6068 23.8542 43.6152 23.998 43.6152 24.1504C43.6322 24.2858 43.6576 24.4212 43.6914 24.5566C43.6914 24.6243 43.6914 24.7005 43.6914 24.7852C43.6914 24.8529 43.7168 24.9121 43.7676 24.9629C43.7168 25.5553 43.6322 26.0462 43.5137 26.4355C43.4121 26.8079 43.319 27.2227 43.2344 27.6797C43.2174 27.7643 43.1921 27.849 43.1582 27.9336C43.1413 28.0013 43.1328 28.0775 43.1328 28.1621C43.1159 28.2298 43.1074 28.2891 43.1074 28.3398C43.1243 28.3906 43.1243 28.4499 43.1074 28.5176C43.0736 28.6191 43.0228 28.7292 42.9551 28.8477C42.8874 28.9661 42.8197 29.0931 42.752 29.2285C42.4811 29.7194 42.1764 30.1849 41.8379 30.625C41.5163 31.0651 41.11 31.4036 40.6191 31.6406C40.4329 31.7253 40.2721 31.8099 40.1367 31.8945C40.0182 31.9622 39.8659 32.013 39.6797 32.0469C39.5612 32.1146 39.4173 32.1908 39.248 32.2754C39.0957 32.3431 38.9434 32.3939 38.791 32.4277C38.7233 32.4616 38.6556 32.4785 38.5879 32.4785C38.5202 32.4785 38.4525 32.487 38.3848 32.5039C38.3001 32.5378 38.224 32.5716 38.1562 32.6055C38.1055 32.6224 38.0547 32.6393 38.0039 32.6562C37.8685 32.6901 37.7669 32.707 37.6992 32.707C37.5807 32.6901 37.4961 32.6224 37.4453 32.5039C37.3945 32.3685 37.3691 32.2331 37.3691 32.0977C37.3014 32.0299 37.2253 31.9707 37.1406 31.9199C37.056 31.8691 36.9967 31.776 36.9629 31.6406C36.9121 31.4544 36.8783 31.3529 36.8613 31.3359C36.8444 31.319 36.8275 31.2936 36.8105 31.2598C36.7259 31.0228 36.6921 30.7604 36.709 30.4727C36.7428 30.168 36.8105 29.9225 36.9121 29.7363C36.946 29.6517 36.9967 29.5924 37.0645 29.5586C37.1322 29.5078 37.1745 29.4401 37.1914 29.3555C37.3268 29.2708 37.4453 29.1862 37.5469 29.1016C37.6484 29 37.7669 28.9069 37.9023 28.8223C38.0716 28.5345 38.2663 28.3145 38.4863 28.1621C38.7064 28.0098 38.918 27.849 39.1211 27.6797C39.1888 27.6289 39.2396 27.5697 39.2734 27.502C39.3242 27.4342 39.3919 27.3665 39.4766 27.2988C39.5273 27.248 39.5866 27.2057 39.6543 27.1719C39.722 27.1211 39.7812 27.0788 39.832 27.0449C39.8659 27.0111 39.8997 26.9772 39.9336 26.9434C39.9674 26.9095 40.0013 26.8757 40.0352 26.8418C40.1029 26.8079 40.1706 26.791 40.2383 26.791C40.306 26.791 40.3737 26.7741 40.4414 26.7402C40.6784 26.7064 40.7969 26.7233 40.7969 26.791C40.7969 26.8418 40.7969 26.901 40.7969 26.9688C40.7122 27.0195 40.6107 27.0703 40.4922 27.1211C40.3737 27.1549 40.2552 27.1888 40.1367 27.2227C40.1029 27.3581 40.0267 27.4596 39.9082 27.5273C39.8066 27.5951 39.7135 27.6882 39.6289 27.8066C39.5612 27.8913 39.502 27.9759 39.4512 28.0605C39.4173 28.1283 39.3411 28.179 39.2227 28.2129C39.138 28.416 39.028 28.5938 38.8926 28.7461C38.7741 28.8815 38.6556 29.0254 38.5371 29.1777C38.5371 29.3639 38.4948 29.5247 38.4102 29.6602C38.3424 29.7786 38.2663 29.9056 38.1816 30.041C38.1478 30.1087 38.1139 30.1764 38.0801 30.2441C38.0462 30.3118 38.0293 30.3626 38.0293 30.3965C38.0462 30.4303 38.0632 30.4811 38.0801 30.5488C38.1139 30.5996 38.1478 30.6504 38.1816 30.7012C38.2155 30.752 38.2493 30.7943 38.2832 30.8281C38.334 30.862 38.3678 30.9043 38.3848 30.9551C38.791 30.7012 39.1888 30.4473 39.5781 30.1934C39.9844 29.9395 40.3314 29.6348 40.6191 29.2793C40.7038 29.127 40.7799 28.9831 40.8477 28.8477C40.9323 28.6953 41.0169 28.5345 41.1016 28.3652C41.1354 28.196 41.1862 28.0352 41.2539 27.8828C41.3216 27.7305 41.3978 27.5781 41.4824 27.4258C41.5671 27.2565 41.6432 27.0872 41.7109 26.918C41.7786 26.7487 41.821 26.571 41.8379 26.3848C41.8548 26.2493 41.8548 26.1055 41.8379 25.9531C41.8379 25.7839 41.8633 25.6569 41.9141 25.5723C41.8802 25.4876 41.8802 25.3776 41.9141 25.2422C41.9479 25.0898 41.9564 24.946 41.9395 24.8105C41.821 24.5566 41.7025 24.4128 41.584 24.3789C41.4655 24.3281 41.3385 24.2858 41.2031 24.252C41.0677 24.3366 40.9238 24.4297 40.7715 24.5312C40.6191 24.6328 40.4753 24.7428 40.3398 24.8613C40.2383 24.9629 40.1283 25.0645 40.0098 25.166C39.9082 25.2676 39.8236 25.3861 39.7559 25.5215C39.5358 25.7585 39.3581 25.9701 39.2227 26.1562C39.0872 26.3255 38.9518 26.5033 38.8164 26.6895C38.5286 26.8757 38.2663 27.0788 38.0293 27.2988C37.7923 27.5189 37.5299 27.722 37.2422 27.9082C37.0221 28.0775 36.8021 28.2552 36.582 28.4414C36.3789 28.6107 36.1842 28.7884 35.998 28.9746C35.8288 29.1608 35.651 29.3385 35.4648 29.5078C35.2786 29.6602 35.1094 29.8294 34.957 30.0156C34.8216 30.2018 34.6777 30.3965 34.5254 30.5996C34.373 30.7858 34.2207 30.972 34.0684 31.1582C33.9837 31.2428 33.9076 31.3359 33.8398 31.4375C33.7721 31.5391 33.696 31.6406 33.6113 31.7422C33.5267 31.8268 33.4421 31.9199 33.3574 32.0215C33.2897 32.123 33.222 32.2161 33.1543 32.3008C33.1035 32.3854 33.0612 32.4785 33.0273 32.5801C32.9935 32.6647 32.9512 32.7493 32.9004 32.834C32.7311 33.0371 32.5618 33.2487 32.3926 33.4688C32.2402 33.6719 32.1048 33.9089 31.9863 34.1797C31.7832 34.4505 31.6224 34.7214 31.5039 34.9922C31.4023 35.2461 31.2839 35.5 31.1484 35.7539C31.1146 35.9909 31.0469 36.2025 30.9453 36.3887C30.8607 36.5749 30.8014 36.7865 30.7676 37.0234C30.7507 37.1419 30.7168 37.2604 30.666 37.3789C30.6322 37.4805 30.6068 37.599 30.5898 37.7344C30.556 37.8529 30.5391 37.9798 30.5391 38.1152C30.5391 38.2337 30.5221 38.3438 30.4883 38.4453C30.3867 38.6654 30.3359 38.8262 30.3359 38.9277C30.3359 39.0124 30.2936 39.0801 30.209 39.1309C30.2598 39.2663 30.3021 39.3848 30.3359 39.4863C30.3867 39.5879 30.4544 39.6895 30.5391 39.791C30.5729 39.8587 30.6237 39.918 30.6914 39.9688C30.7591 40.0195 30.8099 40.0788 30.8438 40.1465C30.9115 40.3158 30.9622 40.4173 30.9961 40.4512C31.0469 40.485 31.1061 40.5273 31.1738 40.5781C31.2246 40.612 31.2839 40.6543 31.3516 40.7051C31.4362 40.7559 31.5124 40.7897 31.5801 40.8066C31.6647 40.8405 31.7493 40.8574 31.834 40.8574C31.9355 40.8405 32.0286 40.8405 32.1133 40.8574C32.1979 40.8574 32.2741 40.8659 32.3418 40.8828C32.4095 40.8828 32.4857 40.8743 32.5703 40.8574C32.7057 40.8236 32.8665 40.7897 33.0527 40.7559C33.2389 40.7051 33.4082 40.6628 33.5605 40.6289C33.7975 40.5612 34.026 40.4935 34.2461 40.4258C34.4831 40.3581 34.7031 40.2819 34.9062 40.1973C35.1263 40.1126 35.304 39.9941 35.4395 39.8418C35.5749 39.6895 35.7272 39.571 35.8965 39.4863C36.1673 39.2832 36.3535 39.1224 36.4551 39.0039C36.5736 38.8685 36.7005 38.7585 36.8359 38.6738C36.9544 38.5215 37.0221 38.4453 37.0391 38.4453C37.056 38.4453 37.0729 38.4368 37.0898 38.4199C37.2083 38.2845 37.3184 38.166 37.4199 38.0645C37.5384 37.946 37.6569 37.819 37.7754 37.6836C37.9616 37.599 38.1139 37.4889 38.2324 37.3535C38.3678 37.3027 38.4779 37.235 38.5625 37.1504C38.6641 37.0658 38.7656 36.9811 38.8672 36.8965C39.0026 36.7949 39.0957 36.7188 39.1465 36.668C39.2142 36.6003 39.2734 36.5326 39.3242 36.4648C39.3919 36.3971 39.4596 36.321 39.5273 36.2363C39.5612 36.2025 39.612 36.1686 39.6797 36.1348C39.7474 36.084 39.8151 36.0163 39.8828 35.9316C39.9167 35.8809 39.9505 35.8132 39.9844 35.7285C40.0182 35.6439 40.0775 35.6016 40.1621 35.6016C40.2637 35.5846 40.3737 35.6354 40.4922 35.7539C40.6107 35.8555 40.6699 35.9655 40.6699 36.084C40.5176 36.321 40.4329 36.4648 40.416 36.5156C40.2975 36.6849 40.1706 36.8457 40.0352 36.998C39.8997 37.1504 39.7643 37.3197 39.6289 37.5059C39.4935 37.6582 39.3581 37.819 39.2227 37.9883C39.0872 38.1406 38.9603 38.3099 38.8418 38.4961C38.7233 38.6823 38.5879 38.8516 38.4355 39.0039C38.3001 39.1393 38.1562 39.2917 38.0039 39.4609C37.7839 39.6979 37.5638 39.918 37.3438 40.1211C37.1406 40.3242 36.946 40.5697 36.7598 40.8574C36.6751 40.9421 36.5905 41.0267 36.5059 41.1113C36.4212 41.179 36.3366 41.2552 36.252 41.3398C36.1673 41.3906 36.0827 41.4499 35.998 41.5176C35.9303 41.5684 35.8542 41.6191 35.7695 41.6699C35.431 41.7884 35.084 41.9408 34.7285 42.127C34.39 42.3301 34.0091 42.4909 33.5859 42.6094C33.3997 42.6602 33.2051 42.7194 33.002 42.7871C32.8158 42.8548 32.6042 42.8802 32.3672 42.8633C32.3333 42.8464 32.291 42.8379 32.2402 42.8379C32.1895 42.8379 32.1387 42.8294 32.0879 42.8125C31.9863 42.7956 31.8763 42.7617 31.7578 42.7109C31.6562 42.6602 31.5378 42.6263 31.4023 42.6094C31.3177 42.6094 31.2415 42.6178 31.1738 42.6348C31.1061 42.6686 31.0299 42.6855 30.9453 42.6855C30.5729 42.4486 30.2682 42.2454 30.0312 42.0762C29.8112 41.9238 29.6081 41.7376 29.4219 41.5176C29.2865 41.2975 29.1934 41.1621 29.1426 41.1113C29.0918 41.0436 29.0326 40.9674 28.9648 40.8828C28.8971 40.7812 28.8294 40.6797 28.7617 40.5781C28.694 40.4596 28.6263 40.3327 28.5586 40.1973C28.5586 40.1296 28.5332 40.0703 28.4824 40.0195C28.4486 39.9688 28.4147 39.9095 28.3809 39.8418C28.2962 39.554 28.2539 39.2578 28.2539 38.9531C28.2539 38.6315 28.2624 38.3184 28.2793 38.0137C28.2962 37.929 28.2962 37.8529 28.2793 37.7852C28.2624 37.7005 28.2539 37.6159 28.2539 37.5312C28.2539 37.3958 28.2793 37.252 28.3301 37.0996C28.3809 36.9473 28.4232 36.8034 28.457 36.668C28.5586 36.2956 28.6686 35.9486 28.7871 35.627C28.9225 35.2884 29.0749 34.9753 29.2441 34.6875C29.3965 34.4844 29.5065 34.2897 29.5742 34.1035C29.6589 33.9173 29.7435 33.7227 29.8281 33.5195C29.9128 33.3333 29.9974 33.1556 30.082 32.9863C30.1667 32.8001 30.2598 32.6139 30.3613 32.4277C30.446 32.2585 30.5306 32.0892 30.6152 31.9199C30.7168 31.7507 30.8438 31.5983 30.9961 31.4629C31.0469 31.2767 31.123 31.1243 31.2246 31.0059C31.3262 30.8704 31.4277 30.735 31.5293 30.5996C31.6986 30.3626 31.8678 30.1426 32.0371 29.9395C32.2233 29.7363 32.3841 29.5078 32.5195 29.2539C32.6549 29.1523 32.7734 29.0423 32.875 28.9238C32.9935 28.8053 33.1035 28.6868 33.2051 28.5684C33.3236 28.4329 33.4336 28.3145 33.5352 28.2129C33.6536 28.0944 33.7721 27.9674 33.8906 27.832C33.9583 27.7812 34.0176 27.7305 34.0684 27.6797C34.1361 27.612 34.1953 27.5527 34.2461 27.502C34.3646 27.3665 34.4831 27.248 34.6016 27.1465C34.7201 27.0449 34.847 26.9434 34.9824 26.8418C35.1348 26.7741 35.2786 26.681 35.4141 26.5625C35.5664 26.4102 35.7103 26.2578 35.8457 26.1055C35.998 25.9362 36.1504 25.7839 36.3027 25.6484C36.5397 25.4115 36.7852 25.1829 37.0391 24.9629C37.293 24.7259 37.5638 24.5143 37.8516 24.3281C38.0208 24.1419 38.224 23.9896 38.4609 23.8711C38.6979 23.7357 38.9349 23.6087 39.1719 23.4902C39.3073 23.4395 39.4173 23.3971 39.502 23.3633C39.6035 23.3125 39.7135 23.2533 39.832 23.1855C40.0182 23.0671 40.1536 23.0078 40.2383 23.0078C40.3229 22.9909 40.3906 22.9486 40.4414 22.8809C40.6445 22.8809 40.8223 22.8555 40.9746 22.8047C41.127 22.737 41.2962 22.7285 41.4824 22.7793C41.5501 22.7962 41.6094 22.8216 41.6602 22.8555C41.7109 22.8724 41.7617 22.8893 41.8125 22.9062C42.1341 22.9401 42.3626 22.9909 42.498 23.0586C42.6335 23.1263 42.7604 23.194 42.8789 23.2617C43.0143 23.3125 43.1667 23.3464 43.3359 23.3633ZM42.625 40.0703C43.0143 39.7318 43.3698 39.3678 43.6914 38.9785C44.0299 38.5723 44.3939 38.166 44.7832 37.7598C44.8678 37.6751 44.9525 37.5736 45.0371 37.4551C45.1217 37.3366 45.2064 37.2096 45.291 37.0742C45.3587 36.9727 45.4434 36.8796 45.5449 36.7949C45.6465 36.6934 45.7311 36.6003 45.7988 36.5156C45.8496 36.431 45.9089 36.3633 45.9766 36.3125C46.0612 36.2617 46.1458 36.2025 46.2305 36.1348C46.3151 36.0501 46.3913 35.9824 46.459 35.9316C46.5267 35.8639 46.6029 35.7962 46.6875 35.7285C46.8398 35.61 46.9837 35.4915 47.1191 35.373C47.2546 35.2376 47.4154 35.1276 47.6016 35.043C47.7031 35.026 47.7793 34.9922 47.8301 34.9414C47.8809 34.8737 47.9401 34.806 48.0078 34.7383C48.0924 34.7552 48.1686 34.7467 48.2363 34.7129C48.304 34.679 48.3802 34.6452 48.4648 34.6113C48.7018 34.6621 48.888 34.7552 49.0234 34.8906C49.1758 35.026 49.3197 35.1615 49.4551 35.2969C49.5736 35.3477 49.6667 35.3984 49.7344 35.4492C49.8021 35.4831 49.8698 35.5254 49.9375 35.5762C50.0052 35.7116 50.0645 35.8385 50.1152 35.957C50.166 36.0755 50.1914 36.2109 50.1914 36.3633C50.1914 36.4648 50.1829 36.5664 50.166 36.668C50.1491 36.7695 50.1322 36.8711 50.1152 36.9727C50.0475 37.1758 50.0221 37.2858 50.0391 37.3027C50.056 37.3197 50.0645 37.3451 50.0645 37.3789C50.0814 37.5143 50.0306 37.6582 49.9121 37.8105C49.8105 37.946 49.7852 38.0898 49.8359 38.2422C49.8529 38.293 49.8275 38.4199 49.7598 38.623C49.709 38.8262 49.6921 38.9531 49.709 39.0039C49.7428 39.1055 49.7598 39.2409 49.7598 39.4102C49.7598 39.5625 49.8021 39.6725 49.8867 39.7402C50.056 39.8079 50.1745 39.8418 50.2422 39.8418C50.3099 39.8418 50.3691 39.8418 50.4199 39.8418C50.623 39.7402 50.877 39.571 51.1816 39.334C51.4863 39.0801 51.7148 38.8685 51.8672 38.6992C52.0365 38.5638 52.1888 38.4368 52.3242 38.3184C52.4596 38.1829 52.6458 38.056 52.8828 37.9375C53.0859 37.8021 53.2214 37.7005 53.2891 37.6328C53.3568 37.5482 53.4668 37.4212 53.6191 37.252C53.6699 37.2012 53.7292 37.1504 53.7969 37.0996C53.8815 37.0488 53.9577 36.9896 54.0254 36.9219C54.0762 36.8711 54.1439 36.8203 54.2285 36.7695C54.3132 36.7018 54.3809 36.6595 54.4316 36.6426C54.4993 36.6426 54.5924 36.6426 54.7109 36.6426C54.8464 36.6426 54.931 36.6764 54.9648 36.7441C54.9987 36.8796 54.9987 36.998 54.9648 37.0996C54.931 37.2012 54.8887 37.2943 54.8379 37.3789C54.7702 37.4805 54.694 37.5736 54.6094 37.6582C54.5417 37.7767 54.4655 37.8867 54.3809 37.9883C54.2962 38.0729 54.2031 38.1745 54.1016 38.293C54 38.3945 53.8815 38.4792 53.7461 38.5469C53.6615 38.6484 53.5768 38.7415 53.4922 38.8262C53.4245 38.8939 53.3483 38.9701 53.2637 39.0547C53.179 39.1393 53.1029 39.2324 53.0352 39.334C52.9674 39.4355 52.8913 39.5286 52.8066 39.6133C52.6204 39.7656 52.4342 39.918 52.248 40.0703C52.0788 40.2057 51.918 40.3665 51.7656 40.5527C51.681 40.5866 51.6133 40.6289 51.5625 40.6797C51.5117 40.7135 51.4525 40.7474 51.3848 40.7812C51.2155 40.832 51.0547 40.9167 50.9023 41.0352C50.75 41.1536 50.5892 41.2806 50.4199 41.416C50.2676 41.5345 50.1068 41.6445 49.9375 41.7461C49.7682 41.8477 49.582 41.89 49.3789 41.873C49.1927 41.9577 49.0319 41.9661 48.8965 41.8984C48.7611 41.8138 48.6257 41.7292 48.4902 41.6445C48.304 41.526 48.1263 41.3906 47.957 41.2383C47.7878 41.0859 47.6862 40.8743 47.6523 40.6035C47.6185 40.1634 47.6693 39.7487 47.8047 39.3594C47.9401 38.9701 48.0417 38.5807 48.1094 38.1914C48.1094 38.1576 48.1178 38.0983 48.1348 38.0137C48.1686 37.9121 48.1855 37.8105 48.1855 37.709C48.2025 37.5905 48.2109 37.4889 48.2109 37.4043C48.2279 37.3027 48.2279 37.235 48.2109 37.2012C48.1771 37.1673 48.1517 37.1081 48.1348 37.0234C48.1348 36.9388 48.0671 36.8542 47.9316 36.7695C47.847 36.7188 47.8132 36.7103 47.8301 36.7441C47.847 36.778 47.7793 36.7949 47.627 36.7949C47.4915 36.8457 47.373 36.9134 47.2715 36.998C47.1699 37.0827 47.0599 37.1673 46.9414 37.252C46.7721 37.4382 46.5775 37.6074 46.3574 37.7598C46.1543 37.9121 45.9766 38.0898 45.8242 38.293C45.6888 38.4453 45.5618 38.5977 45.4434 38.75C45.3249 38.9023 45.1895 39.0547 45.0371 39.207C44.8171 39.4609 44.5885 39.7148 44.3516 39.9688C44.1146 40.2227 43.8776 40.4681 43.6406 40.7051C43.5221 40.8405 43.4121 40.9759 43.3105 41.1113C43.209 41.2467 43.099 41.3822 42.9805 41.5176C42.7773 41.7715 42.5573 42.0169 42.3203 42.2539C42.2188 42.4232 42.0749 42.584 41.8887 42.7363C41.7025 42.8887 41.5163 42.9987 41.3301 43.0664C41.2793 43.0326 41.2285 43.0326 41.1777 43.0664C41.11 43.1003 41.0508 43.1172 41 43.1172C40.7969 43.0326 40.6784 42.9818 40.6445 42.9648C40.6107 42.9648 40.5853 42.931 40.5684 42.8633C40.3991 42.7617 40.3398 42.5924 40.3906 42.3555C40.4245 42.1354 40.4583 41.9408 40.4922 41.7715C40.6615 41.0098 40.8984 40.2565 41.2031 39.5117C41.4909 38.75 41.7194 38.0052 41.8887 37.2773C41.9733 36.9896 42.0579 36.7272 42.1426 36.4902C42.2272 36.2363 42.3288 35.974 42.4473 35.7031C42.5658 35.4661 42.6419 35.2292 42.6758 34.9922C42.7266 34.7383 42.8112 34.4928 42.9297 34.2559C42.9974 34.1374 43.0566 34.0104 43.1074 33.875C43.1582 33.7396 43.209 33.6126 43.2598 33.4941C43.446 33.1556 43.6237 32.7409 43.793 32.25C43.9622 31.7422 44.14 31.2936 44.3262 30.9043C44.5293 30.3626 44.7409 29.8379 44.9609 29.3301C45.181 28.8223 45.4264 28.3229 45.6973 27.832C45.7819 27.4935 45.8835 27.1803 46.002 26.8926C46.1374 26.5879 46.2982 26.2917 46.4844 26.0039C46.6536 25.7839 46.7637 25.6061 46.8145 25.4707C46.8822 25.3353 46.9583 25.2083 47.043 25.0898C47.2461 24.8529 47.4746 24.6667 47.7285 24.5312C47.9824 24.3789 48.2025 24.1842 48.3887 23.9473C48.5241 23.8796 48.651 23.8288 48.7695 23.7949C48.9049 23.7611 49.0319 23.7188 49.1504 23.668C49.1842 23.7018 49.2012 23.7526 49.2012 23.8203C49.2181 23.8711 49.2266 23.9219 49.2266 23.9727C49.2604 23.9727 49.2689 24.0234 49.252 24.125C49.235 24.2266 49.235 24.3112 49.252 24.3789C49.252 24.6328 49.2266 24.8021 49.1758 24.8867C49.1419 24.9714 49.1081 25.0645 49.0742 25.166C49.0573 25.2676 49.0488 25.3607 49.0488 25.4453C49.0488 25.513 49.0404 25.5807 49.0234 25.6484C48.9727 25.8008 48.9473 25.8939 48.9473 25.9277C48.9642 25.9447 48.9727 25.9701 48.9727 26.0039C48.9727 26.0716 48.9642 26.1478 48.9473 26.2324C48.9303 26.3171 48.9219 26.4017 48.9219 26.4863C48.9049 26.6725 48.8542 26.8672 48.7695 27.0703C48.7018 27.2734 48.6426 27.4596 48.5918 27.6289C48.4902 27.7474 48.431 27.8405 48.4141 27.9082C48.3971 27.9759 48.3633 28.0182 48.3125 28.0352C48.2109 28.3229 48.1178 28.6022 48.0332 28.873C47.9486 29.1439 47.8216 29.3978 47.6523 29.6348C47.5846 29.821 47.4915 30.0072 47.373 30.1934C47.2715 30.3626 47.1784 30.5319 47.0938 30.7012C47.0599 30.7858 47.0176 30.8704 46.9668 30.9551C46.9329 31.0228 46.8991 31.099 46.8652 31.1836C46.7467 31.4036 46.6198 31.6322 46.4844 31.8691C46.3659 32.0892 46.222 32.2923 46.0527 32.4785C45.748 33.1217 45.4264 33.7734 45.0879 34.4336C44.7493 35.0768 44.4193 35.7031 44.0977 36.3125C43.9792 36.4987 43.8945 36.6595 43.8438 36.7949C43.793 36.9134 43.7591 37.0234 43.7422 37.125C43.7422 37.2096 43.6999 37.2943 43.6152 37.3789C43.5645 37.5312 43.5137 37.6751 43.4629 37.8105C43.429 37.946 43.3698 38.0729 43.2852 38.1914C43.2174 38.5469 43.1074 38.8685 42.9551 39.1562C42.8197 39.4271 42.7096 39.7318 42.625 40.0703ZM61.3887 35.1445C61.4056 35.1953 61.3887 35.2969 61.3379 35.4492C61.2533 35.5508 61.2025 35.6608 61.1855 35.7793C61.1517 35.847 61.1178 35.9062 61.084 35.957C61.0671 36.0078 61.0501 36.0755 61.0332 36.1602C60.9993 36.2617 60.9824 36.3802 60.9824 36.5156C60.9993 36.651 60.9993 36.778 60.9824 36.8965C60.9486 37.0827 60.9232 37.2689 60.9062 37.4551C60.8893 37.6243 60.8724 37.8021 60.8555 37.9883C60.8555 38.1745 60.8385 38.3861 60.8047 38.623C60.7708 38.86 60.737 39.0716 60.7031 39.2578C60.7708 39.3763 60.8132 39.5033 60.8301 39.6387C60.847 39.7741 60.9062 39.8841 61.0078 39.9688C61.3464 39.918 61.6172 39.8418 61.8203 39.7402C62.0234 39.6217 62.2181 39.4609 62.4043 39.2578C62.5566 39.1901 62.6582 39.1309 62.709 39.0801C62.7767 39.0293 62.8783 38.9616 63.0137 38.877C63.0475 38.8431 63.0814 38.8092 63.1152 38.7754C63.1491 38.7415 63.1829 38.7077 63.2168 38.6738C63.403 38.5723 63.513 38.5046 63.5469 38.4707C63.5977 38.4368 63.6569 38.403 63.7246 38.3691C64.0124 38.1829 64.2324 37.9883 64.3848 37.7852C64.5371 37.6667 64.6387 37.5651 64.6895 37.4805C64.7572 37.3789 64.8926 37.2858 65.0957 37.2012C65.2142 37.0658 65.3327 36.9557 65.4512 36.8711C65.5866 36.7695 65.7135 36.651 65.832 36.5156C65.9167 36.5156 65.9844 36.5326 66.0352 36.5664C66.0859 36.6003 66.1452 36.6341 66.2129 36.668C66.2637 36.8034 66.2721 36.9473 66.2383 37.0996C66.2044 37.235 66.1452 37.362 66.0605 37.4805C65.9759 37.599 65.9336 37.6667 65.9336 37.6836C65.9336 37.7005 65.9251 37.7174 65.9082 37.7344C65.8574 37.8021 65.7897 37.8698 65.7051 37.9375C65.6374 37.9883 65.5781 38.0475 65.5273 38.1152C65.4427 38.2676 65.375 38.3438 65.3242 38.3438C65.2734 38.3438 65.2311 38.3607 65.1973 38.3945C65.0449 38.4792 64.9349 38.5469 64.8672 38.5977C64.8164 38.6484 64.7233 38.7161 64.5879 38.8008C64.4017 38.9023 64.2917 38.9701 64.2578 39.0039C64.224 39.0378 64.1901 39.0632 64.1562 39.0801C63.9362 39.3171 63.7331 39.5117 63.5469 39.6641C63.3776 39.7995 63.1914 39.9857 62.9883 40.2227C62.9206 40.2734 62.8529 40.3242 62.7852 40.375C62.7174 40.4258 62.6582 40.4935 62.6074 40.5781C62.4551 40.6797 62.3281 40.7812 62.2266 40.8828C62.1419 40.9844 62.0404 41.1029 61.9219 41.2383C61.8203 41.2891 61.7103 41.3652 61.5918 41.4668C61.4733 41.5514 61.3464 41.6276 61.2109 41.6953C61.1432 41.7292 61.0671 41.7715 60.9824 41.8223C60.9147 41.8561 60.8385 41.873 60.7539 41.873C60.5508 41.9069 60.3646 41.89 60.1953 41.8223C60.026 41.7546 59.8652 41.7038 59.7129 41.6699C59.6452 41.5684 59.5605 41.4837 59.459 41.416C59.3066 41.2298 59.1966 41.0098 59.1289 40.7559C59.0612 40.502 58.9935 40.2311 58.9258 39.9434C58.7904 40.028 58.6634 40.138 58.5449 40.2734C58.4264 40.4089 58.2741 40.5189 58.0879 40.6035C57.7493 40.9251 57.3854 41.2383 56.9961 41.543C56.6237 41.8307 56.2428 42.1354 55.8535 42.457C55.8027 42.5078 55.752 42.5501 55.7012 42.584C55.6504 42.6178 55.6081 42.6263 55.5742 42.6094C55.4896 42.7109 55.3711 42.7702 55.2188 42.7871C55.0833 42.821 54.931 42.821 54.7617 42.7871C54.5924 42.7025 54.4401 42.6432 54.3047 42.6094C54.1693 42.5755 54.0339 42.5247 53.8984 42.457C53.6107 42.4062 53.3737 42.2793 53.1875 42.0762C52.9844 41.873 52.8151 41.6361 52.6797 41.3652C52.6289 41.2298 52.5951 41.1029 52.5781 40.9844C52.5443 40.8659 52.5104 40.7305 52.4766 40.5781C52.4596 40.4427 52.4342 40.3327 52.4004 40.248C52.3665 40.1465 52.3665 40.0534 52.4004 39.9688C52.3665 39.918 52.3581 39.8672 52.375 39.8164C52.3919 39.7487 52.4004 39.681 52.4004 39.6133C52.3835 39.3763 52.4089 39.1224 52.4766 38.8516C52.5273 38.5807 52.6035 38.3353 52.7051 38.1152C52.7389 38.0475 52.8066 37.9629 52.9082 37.8613C52.9421 37.8105 52.9674 37.7598 52.9844 37.709C53.0013 37.6582 53.0267 37.6159 53.0605 37.582C53.0944 37.5312 53.1452 37.4805 53.2129 37.4297C53.2806 37.3789 53.3398 37.3281 53.3906 37.2773C53.4753 37.1589 53.5684 37.0573 53.6699 36.9727C53.7884 36.8711 53.8984 36.7695 54 36.668C54.0508 36.6172 54.0931 36.5579 54.127 36.4902C54.1777 36.4225 54.2454 36.3717 54.3301 36.3379C54.3978 36.2194 54.474 36.1263 54.5586 36.0586C54.6432 35.974 54.7363 35.8893 54.8379 35.8047C55.1257 35.4492 55.4811 35.153 55.9043 34.916C56.3275 34.679 56.7083 34.4082 57.0469 34.1035C57.1654 34.0527 57.2669 33.9935 57.3516 33.9258C57.4362 33.8581 57.5208 33.7904 57.6055 33.7227C57.8255 33.5365 58.054 33.4772 58.291 33.5449C58.528 33.6126 58.748 33.6719 58.9512 33.7227C59.1204 33.875 59.2812 34.0273 59.4336 34.1797C59.6029 34.332 59.7467 34.5013 59.8652 34.6875C59.9837 34.6706 60.1191 34.6706 60.2715 34.6875C60.4238 34.6875 60.5846 34.6706 60.7539 34.6367C60.8047 34.6367 60.8555 34.6283 60.9062 34.6113C60.957 34.5775 60.9993 34.5605 61.0332 34.5605C61.2871 34.6452 61.4141 34.7721 61.4141 34.9414L61.3887 35.1445ZM58.0625 35.3223C57.6055 35.5423 57.1908 35.8047 56.8184 36.1094C56.446 36.3971 56.0905 36.7103 55.752 37.0488C55.6673 37.1335 55.5742 37.2181 55.4727 37.3027C55.388 37.3704 55.3118 37.4466 55.2441 37.5312C55.1764 37.6159 55.1087 37.7174 55.041 37.8359C54.9902 37.9544 54.9395 38.0645 54.8887 38.166C54.8548 38.2337 54.821 38.293 54.7871 38.3438C54.7533 38.3776 54.7194 38.4199 54.6855 38.4707C54.6517 38.5553 54.6348 38.64 54.6348 38.7246C54.6517 38.8092 54.6602 38.9023 54.6602 39.0039C54.6602 39.0885 54.6602 39.1732 54.6602 39.2578C54.6602 39.3424 54.6686 39.4271 54.6855 39.5117C54.7363 39.6979 54.7617 39.8841 54.7617 40.0703C54.7617 40.2057 54.7702 40.375 54.7871 40.5781C54.821 40.7643 54.8887 40.8913 54.9902 40.959C55.0918 41.0267 55.1934 41.0436 55.2949 41.0098C55.4134 40.9759 55.515 40.9505 55.5996 40.9336C56.1921 40.4766 56.7507 40.0026 57.2754 39.5117C57.8001 39.0039 58.2656 38.4368 58.6719 37.8105C58.638 37.3704 58.6296 36.9473 58.6465 36.541C58.6803 36.1178 58.6465 35.7285 58.5449 35.373C58.4772 35.3392 58.3926 35.3307 58.291 35.3477C58.2064 35.3477 58.1302 35.3392 58.0625 35.3223ZM66.2129 38.877C66.3483 38.7923 66.4583 38.6823 66.543 38.5469C66.6276 38.4115 66.7292 38.276 66.8477 38.1406C67.0677 37.8867 67.3047 37.6751 67.5586 37.5059C67.6771 37.3366 67.821 37.2096 67.9902 37.125C68.1764 37.0234 68.3203 36.8796 68.4219 36.6934C68.4557 36.6426 68.4811 36.5918 68.498 36.541C68.5319 36.4902 68.5658 36.4395 68.5996 36.3887C68.9043 35.9655 69.2513 35.5931 69.6406 35.2715C69.7422 35.1868 69.8353 35.1022 69.9199 35.0176C70.0215 34.9329 70.14 34.8483 70.2754 34.7637C70.4277 34.679 70.5716 34.569 70.707 34.4336C70.8594 34.2982 71.0202 34.1966 71.1895 34.1289C71.3079 34.0781 71.418 34.0443 71.5195 34.0273C71.6211 33.9935 71.7311 33.9596 71.8496 33.9258C71.9681 33.8919 72.0697 33.8665 72.1543 33.8496C72.2559 33.8158 72.3659 33.8158 72.4844 33.8496C72.7552 33.9681 72.9583 34.1966 73.0938 34.5352C73.1276 34.6198 73.1107 34.806 73.043 35.0938C72.9922 35.3646 72.916 35.6693 72.8145 36.0078C72.7298 36.3294 72.6367 36.6426 72.5352 36.9473C72.4336 37.252 72.3659 37.472 72.332 37.6074C72.2982 37.7428 72.2897 37.819 72.3066 37.8359C72.3236 37.8359 72.332 37.8529 72.332 37.8867C72.2982 37.9714 72.2728 38.0475 72.2559 38.1152C72.2389 38.1829 72.222 38.2591 72.2051 38.3438C72.1712 38.4792 72.1458 38.6654 72.1289 38.9023C72.112 39.1224 72.1204 39.3001 72.1543 39.4355C72.3405 39.4186 72.4336 39.4017 72.4336 39.3848C72.4505 39.3678 72.4759 39.3594 72.5098 39.3594C72.5605 39.3424 72.6113 39.3424 72.6621 39.3594C72.7298 39.3594 72.7891 39.3509 72.8398 39.334C73.026 39.2832 73.1953 39.2155 73.3477 39.1309C73.5 39.0293 73.6439 38.9108 73.7793 38.7754C74.084 38.64 74.3633 38.5046 74.6172 38.3691C74.8542 38.1999 75.0404 38.0814 75.1758 38.0137C75.3281 37.929 75.5482 37.819 75.8359 37.6836C75.9375 37.5651 76.0814 37.4635 76.2676 37.3789C76.4707 37.2773 76.64 37.1673 76.7754 37.0488C76.8092 37.015 76.8516 36.9727 76.9023 36.9219C76.9531 36.8542 77.0039 36.8372 77.0547 36.8711C77.1393 36.9557 77.1901 37.0488 77.207 37.1504C77.2409 37.235 77.2493 37.2943 77.2324 37.3281C77.097 37.4635 77.0208 37.5651 77.0039 37.6328C77.0039 37.7005 76.987 37.7513 76.9531 37.7852C76.8685 37.8698 76.7415 37.946 76.5723 38.0137C76.4199 38.0814 76.3268 38.1406 76.293 38.1914C76.276 38.2253 76.2507 38.2591 76.2168 38.293C76.1829 38.3268 76.1322 38.3691 76.0645 38.4199C76.0137 38.4538 75.9714 38.4876 75.9375 38.5215C75.9036 38.5723 75.8529 38.6061 75.7852 38.623C75.7344 38.623 75.6836 38.6315 75.6328 38.6484C75.5312 38.7331 75.4466 38.8092 75.3789 38.877C75.3112 38.9447 75.235 39.0208 75.1504 39.1055C75.015 39.2409 74.9303 39.3424 74.8965 39.4102C74.8626 39.4609 74.7695 39.5371 74.6172 39.6387C74.5326 39.6895 74.4479 39.7402 74.3633 39.791C74.2786 39.8418 74.194 39.8926 74.1094 39.9434C73.8724 40.0618 73.6354 40.2057 73.3984 40.375C73.1615 40.5443 72.9245 40.7135 72.6875 40.8828C72.5182 40.9844 72.3405 41.0775 72.1543 41.1621C71.985 41.2298 71.8242 41.3145 71.6719 41.416C71.6042 41.416 71.5534 41.416 71.5195 41.416C71.5026 41.3991 71.4603 41.4076 71.3926 41.4414C71.3079 41.3906 71.2233 41.3906 71.1387 41.4414C71.054 41.4753 70.9694 41.4753 70.8848 41.4414C70.7155 41.306 70.597 41.2214 70.5293 41.1875C70.4785 41.1536 70.4362 41.1113 70.4023 41.0605C70.3685 40.9759 70.3516 40.8828 70.3516 40.7812C70.3685 40.6797 70.3516 40.5951 70.3008 40.5273C70.3008 40.1549 70.3092 39.7995 70.3262 39.4609C70.36 39.1224 70.4193 38.7669 70.5039 38.3945C70.5208 38.276 70.5547 38.1152 70.6055 37.9121C70.6562 37.6921 70.6986 37.4805 70.7324 37.2773C70.7663 37.0742 70.7917 36.8965 70.8086 36.7441C70.8255 36.5918 70.8086 36.4987 70.7578 36.4648C70.5716 36.5664 70.377 36.7188 70.1738 36.9219C69.9876 37.125 69.8099 37.2943 69.6406 37.4297C69.5052 37.5312 69.3698 37.6243 69.2344 37.709C69.1159 37.7936 68.9889 37.8867 68.8535 37.9883C68.735 38.0729 68.6335 38.1576 68.5488 38.2422C68.4642 38.3268 68.3711 38.4284 68.2695 38.5469C68.151 38.6654 68.041 38.7839 67.9395 38.9023C67.8379 39.0039 67.7194 39.1055 67.584 39.207C67.5163 39.2747 67.4486 39.334 67.3809 39.3848C67.3301 39.4186 67.2793 39.4609 67.2285 39.5117C67.1439 39.5964 67.0592 39.681 66.9746 39.7656C66.9069 39.8333 66.8138 39.8926 66.6953 39.9434C66.5938 40.0788 66.4583 40.2311 66.2891 40.4004C66.1367 40.5697 65.9759 40.7559 65.8066 40.959C65.6543 41.1452 65.502 41.3314 65.3496 41.5176C65.1973 41.7038 65.0788 41.873 64.9941 42.0254C64.791 42.1947 64.571 42.3385 64.334 42.457C64.1139 42.5924 63.8431 42.6094 63.5215 42.5078C63.3522 42.4062 63.2422 42.3216 63.1914 42.2539C63.1406 42.1862 63.0814 42.1354 63.0137 42.1016C63.0306 41.9154 63.0475 41.7376 63.0645 41.5684C63.0814 41.3991 63.1322 41.2214 63.2168 41.0352C63.2337 41.0013 63.2591 40.9674 63.293 40.9336C63.3099 40.8828 63.3353 40.832 63.3691 40.7812C63.4538 40.6289 63.513 40.4596 63.5469 40.2734C63.5638 40.0872 63.6146 39.9095 63.6992 39.7402C63.8008 39.571 63.8685 39.4355 63.9023 39.334C63.9193 39.2155 63.9531 39.1139 64.0039 39.0293C64.0378 38.9447 64.0885 38.8685 64.1562 38.8008C64.207 38.7161 64.2493 38.6315 64.2832 38.5469C64.3171 38.4622 64.3763 38.3691 64.4609 38.2676C64.5456 38.1491 64.6048 38.0475 64.6387 37.9629C64.6895 37.7767 64.7487 37.5905 64.8164 37.4043C64.8841 37.2181 64.9603 37.0319 65.0449 36.8457C65.0788 36.7272 65.1126 36.6172 65.1465 36.5156C65.1803 36.3971 65.2227 36.2871 65.2734 36.1855C65.3581 35.9993 65.4427 35.8216 65.5273 35.6523C65.612 35.4661 65.6966 35.2799 65.7812 35.0938C65.832 34.9922 65.8743 34.9076 65.9082 34.8398C65.959 34.7552 66.0182 34.6706 66.0859 34.5859C66.1367 34.5013 66.179 34.4167 66.2129 34.332C66.2637 34.2474 66.3145 34.1628 66.3652 34.0781C66.416 33.9935 66.4583 33.9004 66.4922 33.7988C66.543 33.6803 66.6107 33.5703 66.6953 33.4688C66.8138 33.3333 66.9069 33.2064 66.9746 33.0879C67.0423 32.9694 67.1523 32.8932 67.3047 32.8594C67.3724 32.8932 67.4401 32.8932 67.5078 32.8594C67.5924 32.8255 67.6686 32.8001 67.7363 32.7832C67.821 32.7493 67.8971 32.7324 67.9648 32.7324C68.0326 32.7155 68.0918 32.7409 68.1426 32.8086C68.3626 32.944 68.5234 33.0625 68.625 33.1641C68.7266 33.2656 68.7943 33.3587 68.8281 33.4434C68.9128 33.5957 68.9212 33.7565 68.8535 33.9258C68.7858 34.0781 68.6673 34.2135 68.498 34.332C68.4303 34.6198 68.3118 34.8906 68.1426 35.1445C67.9733 35.3984 67.821 35.6439 67.6855 35.8809C67.6517 35.9655 67.6178 36.0501 67.584 36.1348C67.5501 36.2194 67.5163 36.304 67.4824 36.3887C67.3809 36.6257 67.2708 36.8626 67.1523 37.0996C67.0508 37.3366 66.9323 37.5651 66.7969 37.7852C66.7292 37.9206 66.6699 38.0306 66.6191 38.1152C66.5684 38.1999 66.5176 38.276 66.4668 38.3438C66.416 38.3945 66.3737 38.4622 66.3398 38.5469C66.306 38.6315 66.2637 38.7415 66.2129 38.877ZM82.666 35.6523C82.6999 35.6862 82.7422 35.6608 82.793 35.5762C82.8607 35.4746 82.9115 35.3984 82.9453 35.3477C82.9792 35.263 83.0046 35.1784 83.0215 35.0938C83.0553 35.0091 83.0892 34.9245 83.123 34.8398C83.2246 34.6536 83.3516 34.459 83.5039 34.2559C83.6732 34.0527 83.8001 33.8581 83.8848 33.6719C83.9186 33.638 83.9525 33.6126 83.9863 33.5957C84.0371 33.5618 84.0794 33.5195 84.1133 33.4688C84.2487 33.4518 84.3418 33.4349 84.3926 33.418C84.4434 33.401 84.4941 33.3757 84.5449 33.3418C84.7311 33.3926 84.8496 33.5365 84.9004 33.7734C84.8835 33.9089 84.8242 34.0189 84.7227 34.1035C84.638 34.1712 84.5788 34.2643 84.5449 34.3828C84.5111 34.4505 84.4941 34.5182 84.4941 34.5859C84.5111 34.6536 84.5026 34.7214 84.4688 34.7891C84.3841 35.0768 84.2656 35.3477 84.1133 35.6016C83.9779 35.8555 83.8594 36.1263 83.7578 36.4141C83.6732 36.5833 83.5885 36.7526 83.5039 36.9219C83.4362 37.0911 83.377 37.2689 83.3262 37.4551C83.14 37.7936 82.9622 38.1491 82.793 38.5215C82.6237 38.8939 82.446 39.2747 82.2598 39.6641C82.4121 39.6302 82.5475 39.571 82.666 39.4863C82.7845 39.3848 82.9115 39.2917 83.0469 39.207C83.1315 39.1732 83.2077 39.1478 83.2754 39.1309C83.3431 39.097 83.4193 39.0632 83.5039 39.0293C83.6562 38.9277 83.7578 38.86 83.8086 38.8262C83.8763 38.7923 83.944 38.7585 84.0117 38.7246C84.0625 38.6908 84.1133 38.6569 84.1641 38.623C84.2148 38.5723 84.2741 38.5299 84.3418 38.4961C84.3757 38.4622 84.418 38.4368 84.4688 38.4199C84.5365 38.403 84.5872 38.3776 84.6211 38.3438C84.7057 38.3099 84.7819 38.2676 84.8496 38.2168C84.9173 38.166 84.9935 38.1152 85.0781 38.0645C85.1797 38.0137 85.2643 37.9629 85.332 37.9121C85.4167 37.8613 85.5182 37.819 85.6367 37.7852C85.6875 37.7682 85.7383 37.7513 85.7891 37.7344C85.8398 37.7005 85.8906 37.6667 85.9414 37.6328C85.9922 37.6159 86.043 37.5905 86.0938 37.5566C86.1445 37.5228 86.1868 37.4974 86.2207 37.4805C86.3223 37.4466 86.3815 37.4212 86.3984 37.4043C86.4154 37.3874 86.4408 37.3704 86.4746 37.3535C86.6439 37.3027 86.737 37.2689 86.7539 37.252C86.7878 37.235 86.8216 37.2096 86.8555 37.1758C87.0586 37.0404 87.2109 36.9642 87.3125 36.9473C87.4141 36.9134 87.5749 36.8288 87.7949 36.6934C87.8965 36.7103 87.9896 36.7188 88.0742 36.7188C88.1589 36.7018 88.235 36.7272 88.3027 36.7949C88.235 37.1165 88.1081 37.3366 87.9219 37.4551C87.7526 37.5566 87.5664 37.6497 87.3633 37.7344C87.0755 37.9883 86.8301 38.1914 86.627 38.3438C86.4238 38.4792 86.1615 38.6484 85.8398 38.8516C85.6367 38.9362 85.459 39.0293 85.3066 39.1309C85.1543 39.1309 85.0358 39.1562 84.9512 39.207C84.8835 39.2578 84.8073 39.3086 84.7227 39.3594C84.6549 39.3932 84.5788 39.4186 84.4941 39.4355C84.4264 39.4525 84.3587 39.4779 84.291 39.5117C84.1217 39.6133 84.0117 39.6725 83.9609 39.6895C83.9271 39.7064 83.8932 39.7318 83.8594 39.7656C83.6901 39.9857 83.5293 40.1296 83.377 40.1973C83.2246 40.265 83.0892 40.3665 82.9707 40.502C82.6829 40.5866 82.446 40.722 82.2598 40.9082C82.0736 41.0944 81.8535 41.2467 81.5996 41.3652C81.4642 41.7546 81.3457 42.1439 81.2441 42.5332C81.1595 42.9225 81.0495 43.3034 80.9141 43.6758C80.7786 44.0651 80.6348 44.4544 80.4824 44.8438C80.347 45.2331 80.2285 45.6309 80.127 46.0371C79.9408 46.3587 79.7884 46.7057 79.6699 47.0781C79.5514 47.4505 79.4076 47.8229 79.2383 48.1953C79.1029 48.2969 79.0013 48.4408 78.9336 48.627C78.8828 48.8132 78.7812 48.9655 78.6289 49.084C78.5443 49.2702 78.4258 49.4225 78.2734 49.541C78.1211 49.6764 77.9772 49.8118 77.8418 49.9473C77.8079 49.9811 77.7741 50.015 77.7402 50.0488C77.7064 50.0996 77.6725 50.1504 77.6387 50.2012C77.4355 50.4043 77.2155 50.6074 76.9785 50.8105C76.7415 51.0306 76.5299 51.2591 76.3438 51.4961C76.1576 51.6146 75.9883 51.7415 75.8359 51.877C75.6836 52.0124 75.5312 52.1562 75.3789 52.3086C75.2943 52.3424 75.2266 52.3678 75.1758 52.3848C75.1081 52.4186 75.0404 52.4102 74.9727 52.3594C74.8034 52.4102 74.6257 52.4186 74.4395 52.3848C74.2533 52.3509 74.1771 52.2409 74.2109 52.0547C74.1094 51.9701 74.0501 51.8939 74.0332 51.8262C74.0163 51.7754 73.9909 51.7161 73.957 51.6484C74.0247 51.513 74.0247 51.3861 73.957 51.2676C73.8893 51.166 73.8555 51.0729 73.8555 50.9883C73.8555 50.7682 73.8809 50.5566 73.9316 50.3535C73.9655 50.1335 74.0247 49.9388 74.1094 49.7695C74.1771 49.6172 74.2533 49.4479 74.3379 49.2617C74.4395 49.0247 74.5326 48.7962 74.6172 48.5762C74.6849 48.373 74.7611 48.153 74.8457 47.916C74.9642 47.7298 75.0488 47.5267 75.0996 47.3066C75.1335 47.1035 75.1927 46.9004 75.2773 46.6973C75.3451 46.5618 75.4128 46.4264 75.4805 46.291C75.5651 46.1725 75.6159 46.0456 75.6328 45.9102C75.7682 45.6562 75.9121 45.4277 76.0645 45.2246C76.2337 45.0215 76.3776 44.793 76.4961 44.5391C76.9362 43.9128 77.444 43.3626 78.0195 42.8887C78.5951 42.4316 79.179 41.9831 79.7715 41.543C79.8392 41.4583 79.8815 41.4076 79.8984 41.3906C79.9323 41.3568 79.9577 41.3314 79.9746 41.3145C79.9915 41.2975 80.0169 41.2806 80.0508 41.2637C80.0846 41.2467 80.1439 41.196 80.2285 41.1113C80.2624 41.0944 80.2793 41.0605 80.2793 41.0098C80.2962 40.959 80.3301 40.9082 80.3809 40.8574C80.5163 40.485 80.6771 40.0703 80.8633 39.6133C81.0495 39.1393 81.1849 38.75 81.2695 38.4453C81.1849 38.4792 81.1172 38.5384 81.0664 38.623C81.0326 38.7077 80.9902 38.7754 80.9395 38.8262C80.9056 38.877 80.8633 38.9193 80.8125 38.9531C80.7617 38.987 80.7194 39.0208 80.6855 39.0547C80.6517 39.0885 80.6094 39.1309 80.5586 39.1816C80.5078 39.2155 80.4655 39.2578 80.4316 39.3086C80.3132 39.4102 80.2116 39.5033 80.127 39.5879C80.0592 39.6556 79.9915 39.7233 79.9238 39.791C79.873 39.8587 79.8053 39.9349 79.7207 40.0195C79.653 40.0872 79.5599 40.1719 79.4414 40.2734C79.306 40.4596 79.1621 40.6374 79.0098 40.8066C78.8743 40.959 78.7135 41.0859 78.5273 41.1875C78.2734 41.3737 78.0111 41.526 77.7402 41.6445C77.4694 41.763 77.2155 41.8646 76.9785 41.9492C76.86 41.9831 76.7415 42.0169 76.623 42.0508C76.5215 42.1016 76.4284 42.127 76.3438 42.127C76.3099 42.1439 76.2676 42.1439 76.2168 42.127C76.166 42.127 76.1152 42.127 76.0645 42.127C75.7936 42.127 75.5651 42.0931 75.3789 42.0254C75.3281 41.9915 75.2858 41.9661 75.252 41.9492C75.2181 41.9154 75.1842 41.8646 75.1504 41.7969C75.1165 41.763 75.0742 41.7207 75.0234 41.6699C74.9727 41.6022 74.9303 41.543 74.8965 41.4922C74.8626 41.4076 74.8457 41.3229 74.8457 41.2383C74.8457 41.1367 74.8288 41.0436 74.7949 40.959C74.7611 40.7897 74.7188 40.6374 74.668 40.502C74.6172 40.3496 74.6087 40.1973 74.6426 40.0449C74.6595 39.9941 74.6764 39.9518 74.6934 39.918C74.7103 39.8672 74.7103 39.8164 74.6934 39.7656C74.6764 39.7148 74.6595 39.6641 74.6426 39.6133C74.6087 39.5625 74.5833 39.5117 74.5664 39.4609C74.5326 39.4102 74.5072 39.3594 74.4902 39.3086C74.4564 39.2409 74.4395 39.1816 74.4395 39.1309C74.4225 39.0462 74.4395 38.9616 74.4902 38.877C74.5241 38.7754 74.5241 38.6908 74.4902 38.623C74.541 38.5046 74.5918 38.3861 74.6426 38.2676C74.6764 38.1491 74.7357 38.0391 74.8203 37.9375C74.9388 37.7682 75.0234 37.6328 75.0742 37.5312C75.1081 37.4128 75.1589 37.3112 75.2266 37.2266C75.3112 37.0742 75.3958 36.9388 75.4805 36.8203C75.582 36.7018 75.6751 36.5749 75.7598 36.4395C76.0814 35.8809 76.4368 35.373 76.8262 34.916C76.8939 34.8822 76.9531 34.8568 77.0039 34.8398C77.0547 34.8229 77.0885 34.7806 77.1055 34.7129C77.5117 34.5267 77.8841 34.3236 78.2227 34.1035C78.4089 34.0527 78.5697 33.9681 78.7051 33.8496C78.8574 33.7142 79.0267 33.6126 79.2129 33.5449C79.3652 33.4772 79.526 33.3926 79.6953 33.291C79.8646 33.1895 80.0423 33.1302 80.2285 33.1133C80.3978 33.1133 80.5247 33.0879 80.6094 33.0371C80.694 32.9863 80.7786 32.9355 80.8633 32.8848C81.1172 32.7493 81.388 32.6901 81.6758 32.707C81.8112 32.8424 81.9466 32.944 82.082 33.0117C82.2344 33.0794 82.3529 33.1895 82.4375 33.3418C82.4714 33.4095 82.4883 33.4941 82.4883 33.5957C82.5052 33.6973 82.5221 33.8073 82.5391 33.9258C82.5729 34.0104 82.5983 34.1035 82.6152 34.2051C82.6491 34.2897 82.6745 34.3743 82.6914 34.459C82.7083 34.6621 82.6999 34.8652 82.666 35.0684C82.6491 35.2715 82.6491 35.4661 82.666 35.6523ZM81.3203 34.5859C81.2526 34.6367 81.1764 34.6621 81.0918 34.6621C81.0241 34.6621 80.9564 34.679 80.8887 34.7129C80.8548 34.7467 80.8125 34.7806 80.7617 34.8145C80.7279 34.8314 80.694 34.8568 80.6602 34.8906C80.5078 34.9753 80.3385 35.0514 80.1523 35.1191C79.9831 35.1699 79.8307 35.2376 79.6953 35.3223C79.6107 35.39 79.543 35.4661 79.4922 35.5508C79.4414 35.6185 79.3737 35.6777 79.2891 35.7285C79.1875 35.7962 79.0775 35.8555 78.959 35.9062C78.8574 35.957 78.7643 36.0247 78.6797 36.1094C78.6289 36.1602 78.5866 36.2109 78.5527 36.2617C78.5358 36.3125 78.485 36.3379 78.4004 36.3379C78.2142 36.6934 77.9857 37.015 77.7148 37.3027C77.444 37.5905 77.224 37.9206 77.0547 38.293C76.9701 38.3268 76.9108 38.3861 76.877 38.4707C76.86 38.5553 76.8262 38.64 76.7754 38.7246C76.5892 39.0632 76.513 39.3255 76.5469 39.5117C76.5977 39.681 76.6315 39.8503 76.6484 40.0195C76.75 40.1549 76.8854 40.1973 77.0547 40.1465C77.2409 40.0788 77.4017 40.0026 77.5371 39.918C77.7064 39.7995 77.8672 39.6725 78.0195 39.5371C78.1888 39.3848 78.3581 39.2324 78.5273 39.0801C78.6966 38.9447 78.849 38.8008 78.9844 38.6484C79.1367 38.4792 79.2806 38.3184 79.416 38.166C79.4837 38.0814 79.5514 38.0137 79.6191 37.9629C79.6868 37.9121 79.7546 37.8444 79.8223 37.7598C79.9069 37.6751 79.9831 37.599 80.0508 37.5312C80.1185 37.4466 80.1947 37.3789 80.2793 37.3281C80.4147 37.1419 80.5332 36.9642 80.6348 36.7949C80.7533 36.6257 80.8802 36.4648 81.0156 36.3125C81.1003 36.0924 81.1849 35.8893 81.2695 35.7031C81.3711 35.5169 81.4557 35.3223 81.5234 35.1191C81.4896 35.0345 81.4727 34.9414 81.4727 34.8398C81.4727 34.7214 81.4303 34.6367 81.3457 34.5859H81.3203ZM79.2637 43.7773C79.2129 43.7943 79.1621 43.8197 79.1113 43.8535C79.0775 43.9043 79.0267 43.9551 78.959 44.0059C78.7897 44.1751 78.6204 44.3444 78.4512 44.5137C78.2988 44.6999 78.1549 44.903 78.0195 45.123C77.8672 45.3431 77.6895 45.5547 77.4863 45.7578C77.3001 45.9609 77.1732 46.1895 77.1055 46.4434C76.9193 46.7311 76.75 47.0273 76.5977 47.332C76.4622 47.6367 76.3522 47.9753 76.2676 48.3477C76.2337 48.5508 76.1999 48.7116 76.166 48.8301C76.1322 48.9486 76.1068 49.0671 76.0898 49.1855C76.1914 49.084 76.293 48.974 76.3945 48.8555C76.513 48.7539 76.6146 48.6523 76.6992 48.5508C76.7331 48.5169 76.7585 48.4746 76.7754 48.4238C76.8092 48.373 76.8431 48.3307 76.877 48.2969C77.0801 48.0091 77.2917 47.7298 77.5117 47.459C77.7318 47.1882 77.9349 46.9089 78.1211 46.6211C78.2057 46.5195 78.2819 46.418 78.3496 46.3164C78.4173 46.2318 78.485 46.1387 78.5527 46.0371C78.8574 45.6139 79.0944 45.1569 79.2637 44.666C79.4329 44.1921 79.6107 43.7012 79.7969 43.1934C79.6953 43.2949 79.5938 43.3796 79.4922 43.4473C79.4076 43.5319 79.3314 43.6419 79.2637 43.7773ZM90.4102 34.7637C90.2917 34.916 90.1732 35.0599 90.0547 35.1953C89.9362 35.3307 89.8008 35.4577 89.6484 35.5762C89.5469 35.7624 89.4284 35.9316 89.293 36.084C89.1576 36.2363 89.0221 36.3802 88.8867 36.5156C88.819 36.651 88.7428 36.7611 88.6582 36.8457C88.5736 36.9134 88.4805 36.9896 88.3789 37.0742C88.3281 37.1589 88.2604 37.2435 88.1758 37.3281C88.1081 37.4128 88.0404 37.4974 87.9727 37.582C87.9219 37.6667 87.8796 37.7598 87.8457 37.8613C87.8118 37.9629 87.8203 38.0729 87.8711 38.1914C88.0573 38.2253 88.2435 38.1999 88.4297 38.1152C88.6159 38.0306 88.7767 37.9544 88.9121 37.8867C89.0475 37.8021 89.1829 37.7344 89.3184 37.6836C89.4707 37.6159 89.6061 37.5397 89.7246 37.4551L90.3848 36.7949C90.5033 36.6934 90.6048 36.5833 90.6895 36.4648C90.7741 36.3464 90.8672 36.2194 90.9688 36.084C91.0026 35.9147 91.0703 35.7454 91.1719 35.5762C91.2734 35.39 91.3158 35.2122 91.2988 35.043C91.2819 34.9414 91.248 34.8568 91.1973 34.7891C91.1634 34.7044 91.138 34.6198 91.1211 34.5352C90.9518 34.5352 90.8164 34.569 90.7148 34.6367C90.6302 34.6875 90.5286 34.7298 90.4102 34.7637ZM86.3223 36.3887C86.3561 36.3717 86.4238 36.304 86.5254 36.1855C86.6439 36.0501 86.7708 35.9062 86.9062 35.7539C87.0417 35.5846 87.1686 35.4408 87.2871 35.3223C87.4056 35.1868 87.4902 35.1107 87.541 35.0938C87.5918 35.0091 87.6341 34.9414 87.668 34.8906C87.7188 34.8229 87.7865 34.7637 87.8711 34.7129C88.0065 34.459 88.1842 34.2559 88.4043 34.1035C88.6243 33.9342 88.8359 33.7396 89.0391 33.5195C89.3607 33.3841 89.6823 33.2148 90.0039 33.0117C90.3424 32.7917 90.7148 32.6732 91.1211 32.6562C91.3073 32.7409 91.485 32.7663 91.6543 32.7324C91.8405 32.6986 92.0098 32.7409 92.1621 32.8594C92.2467 33.0117 92.3229 33.1133 92.3906 33.1641C92.4583 33.1979 92.5091 33.2402 92.543 33.291C92.6107 33.5111 92.6615 33.6549 92.6953 33.7227C92.7292 33.7734 92.7546 33.8411 92.7715 33.9258C92.7884 34.1797 92.8053 34.3659 92.8223 34.4844C92.8392 34.5859 92.8392 34.6875 92.8223 34.7891C92.7715 35.2461 92.6868 35.6777 92.5684 36.084C92.5345 36.1855 92.5007 36.2956 92.4668 36.4141C92.4329 36.5156 92.3906 36.6087 92.3398 36.6934C92.2214 36.8457 92.1283 36.9811 92.0605 37.0996C92.0098 37.2012 91.959 37.2858 91.9082 37.3535C91.7051 37.5566 91.5273 37.7259 91.375 37.8613C91.2227 37.946 91.0703 38.0391 90.918 38.1406C90.7656 38.2422 90.5964 38.3099 90.4102 38.3438C90.3255 38.3945 90.2493 38.4453 90.1816 38.4961C90.1139 38.5299 90.0293 38.5553 89.9277 38.5723C89.7585 38.6908 89.5892 38.7839 89.4199 38.8516C89.2507 38.9023 89.0729 38.9701 88.8867 39.0547C88.7852 39.0885 88.6751 39.1478 88.5566 39.2324C88.4382 39.3171 88.3197 39.3848 88.2012 39.4355C88.0996 39.4694 87.9727 39.5033 87.8203 39.5371C87.6849 39.554 87.5749 39.5794 87.4902 39.6133C87.5749 39.7995 87.6087 40.0111 87.5918 40.248C87.5749 40.485 87.6172 40.6966 87.7188 40.8828C87.9388 40.9336 88.1758 40.9759 88.4297 41.0098C88.7005 41.0267 88.9544 41.0182 89.1914 40.9844C89.276 40.9674 89.3691 40.9421 89.4707 40.9082C89.5723 40.8574 89.6738 40.8236 89.7754 40.8066C89.9616 40.7728 90.1393 40.7305 90.3086 40.6797C90.4948 40.6289 90.6556 40.5612 90.791 40.4766C91.2819 40.3073 91.7559 40.0788 92.2129 39.791C92.6699 39.5033 93.0677 39.1901 93.4062 38.8516C93.6094 38.7161 93.8294 38.5299 94.0664 38.293C94.3203 38.056 94.515 37.8359 94.6504 37.6328C94.9043 37.362 95.1243 37.1504 95.3105 36.998C95.5137 36.8457 95.6999 36.778 95.8691 36.7949C96.0046 36.7949 96.1315 36.8796 96.25 37.0488C96.3854 37.2012 96.377 37.3704 96.2246 37.5566C96.0553 37.6582 95.8776 37.8105 95.6914 38.0137C95.5052 38.2168 95.3105 38.3607 95.1074 38.4453C94.9551 38.5469 94.7604 38.7331 94.5234 39.0039C94.3034 39.2747 94.1172 39.4779 93.9648 39.6133C93.8971 39.681 93.804 39.7656 93.6855 39.8672C93.584 39.9518 93.4993 40.0365 93.4316 40.1211C93.1947 40.3242 92.9408 40.5104 92.6699 40.6797C92.5684 40.6458 92.4922 40.6628 92.4414 40.7305C92.3906 40.7982 92.3229 40.8659 92.2383 40.9336C92.1875 40.9674 92.1283 41.0013 92.0605 41.0352C92.0098 41.069 91.959 41.1029 91.9082 41.1367C91.7728 41.2552 91.6204 41.3737 91.4512 41.4922C91.2988 41.6107 91.138 41.7122 90.9688 41.7969C90.6302 42 90.2917 42.1693 89.9531 42.3047C89.6146 42.457 89.2845 42.6432 88.9629 42.8633C88.8613 42.8802 88.7682 42.8887 88.6836 42.8887C88.599 42.9056 88.5143 42.9225 88.4297 42.9395C88.3281 42.9733 88.235 42.9902 88.1504 42.9902C88.0827 42.9902 87.9811 42.9733 87.8457 42.9395C87.541 42.8548 87.2871 42.7533 87.084 42.6348C86.8809 42.5163 86.6777 42.347 86.4746 42.127C86.373 42.0254 86.263 41.9323 86.1445 41.8477C86.026 41.763 85.9329 41.6699 85.8652 41.5684C85.8145 41.4837 85.7552 41.3483 85.6875 41.1621C85.6198 40.9759 85.5605 40.7812 85.5098 40.5781C85.459 40.3581 85.4167 40.1465 85.3828 39.9434C85.349 39.7402 85.332 39.5879 85.332 39.4863C85.3659 39.4186 85.4082 39.3001 85.459 39.1309C85.4928 38.9616 85.5352 38.7839 85.5859 38.5977C85.6198 38.3945 85.6536 38.2083 85.6875 38.0391C85.7044 37.8698 85.7129 37.7513 85.7129 37.6836C85.7298 37.6667 85.7721 37.599 85.8398 37.4805C85.9076 37.3451 85.9837 37.2012 86.0684 37.0488C86.1361 36.8965 86.1953 36.7611 86.2461 36.6426C86.2969 36.5072 86.3223 36.4225 86.3223 36.3887ZM101.912 39.9941C101.98 39.9095 102.031 39.8503 102.064 39.8164C102.098 39.7656 102.149 39.7233 102.217 39.6895C102.335 39.4355 102.462 39.2324 102.598 39.0801C102.75 38.9108 102.902 38.7585 103.055 38.623C103.207 38.4707 103.368 38.3353 103.537 38.2168C103.723 38.0814 103.926 37.9206 104.146 37.7344C104.231 37.7344 104.299 37.709 104.35 37.6582C104.417 37.5905 104.493 37.5397 104.578 37.5059C104.697 37.4043 104.79 37.3281 104.857 37.2773C104.942 37.2266 105.01 37.1589 105.061 37.0742C105.264 36.9727 105.441 36.8457 105.594 36.6934C105.763 36.541 105.941 36.3971 106.127 36.2617C106.279 36.2279 106.423 36.2448 106.559 36.3125C106.626 36.4479 106.652 36.5918 106.635 36.7441C106.618 36.8965 106.533 36.9811 106.381 36.998C106.33 37.0488 106.271 37.0996 106.203 37.1504C106.152 37.2012 106.085 37.235 106 37.252C105.898 37.2689 105.822 37.2943 105.771 37.3281C105.738 37.3451 105.704 37.3874 105.67 37.4551C105.653 37.6243 105.628 37.7259 105.594 37.7598C105.577 37.7767 105.56 37.8021 105.543 37.8359C105.441 38.0052 105.331 38.1576 105.213 38.293C105.111 38.4115 105.01 38.5299 104.908 38.6484C104.807 38.75 104.705 38.8685 104.604 39.0039C104.502 39.1224 104.392 39.2747 104.273 39.4609C104.172 39.5286 104.096 39.6217 104.045 39.7402C103.74 39.9095 103.512 40.0449 103.359 40.1465C103.224 40.2311 103.097 40.3411 102.979 40.4766C102.877 40.5443 102.826 40.5951 102.826 40.6289C102.826 40.6628 102.809 40.6966 102.775 40.7305C102.606 40.8659 102.505 40.9759 102.471 41.0605C102.454 41.1283 102.42 41.179 102.369 41.2129C102.2 41.3314 102.073 41.4414 101.988 41.543C101.904 41.6276 101.794 41.6953 101.658 41.7461C101.557 41.8307 101.413 41.9323 101.227 42.0508C101.04 42.1693 100.837 42.2793 100.617 42.3809C100.397 42.4824 100.177 42.5501 99.957 42.584C99.7539 42.6348 99.5762 42.6263 99.4238 42.5586C99.3561 42.5078 99.2969 42.457 99.2461 42.4062C99.1953 42.3724 99.1361 42.3385 99.0684 42.3047C98.9499 42.1693 98.8229 42.0592 98.6875 41.9746C98.569 41.873 98.459 41.7461 98.3574 41.5938C98.2389 41.4245 98.1543 41.2467 98.1035 41.0605C98.0697 40.8574 98.0104 40.6628 97.9258 40.4766C97.9089 40.2734 97.9089 40.0788 97.9258 39.8926C97.9427 39.6895 97.9766 39.5202 98.0273 39.3848C98.2135 38.8092 98.4336 38.3099 98.6875 37.8867C98.9583 37.4635 99.1445 36.9811 99.2461 36.4395C99.0599 36.2533 98.9499 36.084 98.916 35.9316C98.8991 35.7624 98.8568 35.5339 98.7891 35.2461C98.349 35.5339 97.9427 35.8978 97.5703 36.3379C97.1979 36.778 96.8678 37.2266 96.5801 37.6836C96.4616 37.8867 96.36 38.0729 96.2754 38.2422C96.1908 38.4115 96.0892 38.5638 95.9707 38.6992C95.8861 38.7839 95.8438 38.8431 95.8438 38.877C95.8438 38.8939 95.8268 38.9193 95.793 38.9531C95.6576 39.1224 95.5729 39.2409 95.5391 39.3086C95.5052 39.3763 95.4714 39.4355 95.4375 39.4863C95.4036 39.5371 95.3613 39.5879 95.3105 39.6387C95.2598 39.6895 95.2174 39.7402 95.1836 39.791C94.9466 40.1296 94.7266 40.4512 94.5234 40.7559C94.3372 41.0436 94.1426 41.3398 93.9395 41.6445C93.8548 41.7799 93.7786 41.9238 93.7109 42.0762C93.6432 42.2285 93.5586 42.3639 93.457 42.4824C93.2878 42.4993 93.1947 42.474 93.1777 42.4062C93.1439 42.3385 93.1439 42.2793 93.1777 42.2285C93.0762 42.1608 93 42.0592 92.9492 41.9238C92.8815 41.7715 92.8477 41.6107 92.8477 41.4414C92.8307 41.2721 92.8307 41.1029 92.8477 40.9336C92.8646 40.7643 92.8984 40.6204 92.9492 40.502C92.8984 40.3496 92.8815 40.265 92.8984 40.248C92.9154 40.2311 92.9238 40.2057 92.9238 40.1719C93.1439 39.8672 93.3724 39.5625 93.6094 39.2578C93.8294 38.9531 94.0664 38.6654 94.3203 38.3945C94.4049 38.276 94.4811 38.1576 94.5488 38.0391C94.6335 37.9206 94.7266 37.8105 94.8281 37.709C94.9805 37.4382 95.1497 37.1842 95.3359 36.9473C95.5391 36.7103 95.7083 36.4479 95.8438 36.1602C95.9284 36.0755 95.9876 35.9824 96.0215 35.8809C96.0723 35.7793 96.1484 35.6947 96.25 35.627C96.3685 35.4238 96.4616 35.2292 96.5293 35.043C96.597 34.8568 96.6901 34.696 96.8086 34.5605C96.8424 34.4421 96.8848 34.349 96.9355 34.2812C96.9863 34.2135 97.054 34.1374 97.1387 34.0527C97.1556 33.9681 97.1979 33.9004 97.2656 33.8496C97.3503 33.7819 97.418 33.7057 97.4688 33.6211C97.5026 33.5026 97.5449 33.4264 97.5957 33.3926C97.6465 33.3587 97.6719 33.2995 97.6719 33.2148C97.7565 33.1302 97.8411 33.0456 97.9258 32.9609C98.0104 32.8594 98.0866 32.7409 98.1543 32.6055C98.3913 32.4701 98.5521 32.4023 98.6367 32.4023C98.7383 32.4023 98.8145 32.36 98.8652 32.2754C99.0007 32.2754 99.1615 32.2754 99.3477 32.2754C99.5339 32.2585 99.6354 32.3177 99.6523 32.4531C99.6693 32.487 99.6693 32.5293 99.6523 32.5801C99.6354 32.6309 99.6185 32.6816 99.6016 32.7324C99.6185 32.8848 99.6185 32.9694 99.6016 32.9863C99.5846 32.9863 99.5762 32.9948 99.5762 33.0117C99.5592 33.0625 99.5508 33.1217 99.5508 33.1895C99.5677 33.2572 99.5762 33.3333 99.5762 33.418C99.5592 33.5534 99.5423 33.6634 99.5254 33.748C99.5085 33.8158 99.5423 33.9089 99.627 34.0273C99.6608 34.0781 99.7116 34.1289 99.7793 34.1797C99.847 34.2135 99.9062 34.2643 99.957 34.332C100.008 34.3828 100.033 34.4336 100.033 34.4844C100.05 34.5352 100.084 34.5859 100.135 34.6367C100.169 34.6875 100.219 34.7298 100.287 34.7637C100.355 34.7975 100.406 34.8568 100.439 34.9414C100.524 35.0091 100.549 35.0514 100.516 35.0684C100.499 35.0853 100.541 35.1191 100.643 35.1699C100.846 35.4238 100.99 35.6862 101.074 35.957C101.176 36.1602 101.269 36.3294 101.354 36.4648C101.438 36.6003 101.438 36.7357 101.354 36.8711C101.32 36.9049 101.286 36.9473 101.252 36.998C101.235 37.0488 101.21 37.1081 101.176 37.1758C101.108 37.2435 101.04 37.3281 100.973 37.4297C100.939 37.4974 100.913 37.5651 100.896 37.6328C100.88 37.6836 100.854 37.7344 100.82 37.7852C100.668 38.0221 100.507 38.2422 100.338 38.4453C100.186 38.6484 100.05 38.86 99.9316 39.0801C99.9486 39.571 100.042 39.9264 100.211 40.1465C100.414 40.3835 100.541 40.502 100.592 40.502C100.693 40.5189 100.812 40.485 100.947 40.4004C101.083 40.3158 101.193 40.248 101.277 40.1973C101.345 40.1634 101.404 40.1296 101.455 40.0957C101.506 40.0618 101.565 40.0365 101.633 40.0195C101.819 39.9518 101.904 39.9349 101.887 39.9688C101.87 39.9857 101.878 39.9941 101.912 39.9941Z" fill="black"/>
<defs>
<linearGradient id="paint0_linear_242_585" x1="9" y1="29.5476" x2="32.001" y2="29.561" gradientUnits="userSpaceOnUse">
<stop stop-color="#006B41"/>
<stop offset="1" stop-color="#008234" stop-opacity="0.86"/>
</linearGradient>
<linearGradient id="paint1_linear_242_585" x1="9" y1="29.5476" x2="32.001" y2="29.561" gradientUnits="userSpaceOnUse">
<stop stop-color="#006B41"/>
<stop offset="1" stop-color="#008234" stop-opacity="0.86"/>
</linearGradient>
</defs>
</svg>
